<svg xmlns="http://www.w3.org/2000/svg" viewBox="0 0 462.997 462.997" fill="#63B3ED"><path d="M422.207 340.143l-2.942-5.885c-3.806-7.611-9.011-14.278-15.471-19.815l-43.364-37.17c-1.388-1.189-2.37-2.826-2.767-4.609l-12.62-56.791c-1.042-4.692-4.129-8.568-8.469-10.634-4.34-2.065-9.295-2.018-13.594.132L287.522 223.1a8.5411 8.5411 0 01-3.801.897h-28.723v-8.5c0-2.997-.57-5.862-1.597-8.5h10.407c7.179 0 13.867-3.215 18.351-8.82l56.47-70.586a23.5364 23.5364 0 004.912-11.356l5.783-40.478c1.333-9.337-1.853-18.894-8.521-25.563-2.93-2.929-7.678-2.929-10.607 0-2.929 2.929-2.929 7.678 0 10.606 3.35 3.349 4.949 8.148 4.279 12.836l-5.783 40.478a8.5195 8.5195 0 01-1.776 4.108l-56.469 70.585c-1.622 2.027-4.041 3.19-6.638 3.19h-10.407c1.027-2.638 1.597-5.503 1.597-8.5v-24c0-3.258-.667-6.363-1.871-9.186 10.248-2.529 17.871-11.796 17.871-22.814v-3.889c0-9.408-2.759-18.519-7.978-26.348l-.011-.016 4.986-9.972a.4973.4973 0 01.446-.275h19.056c12.958 0 23.5-10.542 23.5-23.5v-36.7c0-9.29-3.618-18.024-10.196-24.603-2.929-2.928-7.672-2.925-10.603.005-2.929 2.929-2.924 7.683.005 10.611 3.736 3.736 5.794 8.703 5.794 13.987v36.7c0 4.687-3.813 8.5-8.5 8.5h-19.056c-5.91 0-11.223 3.284-13.863 8.568l-2.386 4.773c-5.111-3.429-11.184-5.341-17.539-5.341h-6.311c-6.355 0-12.428 1.912-17.539 5.341l-2.386-4.771c-2.642-5.286-7.954-8.57-13.864-8.57h-19.056c-4.687 0-8.5-3.813-8.5-8.5v-36.7c0-5.284 2.058-10.25 5.804-13.997 2.929-2.929 2.924-7.673-.005-10.602-2.93-2.928-7.683-2.925-10.612.005-6.568 6.569-10.187 15.303-10.187 24.593v36.7c0 12.958 10.542 23.5 23.5 23.5h19.056c.19 0 .361.105.447.276l4.985 9.97-.011.016c-5.219 7.829-7.978 16.94-7.978 26.348v3.889c0 11.018 7.623 20.285 17.871 22.814-1.204 2.823-1.871 5.928-1.871 9.186v24c0 2.997.57 5.862 1.597 8.5h-10.407c-2.597 0-5.016-1.163-6.638-3.19l-56.468-70.584a8.5096 8.5096 0 01-1.777-4.109l-5.783-40.477c-.67-4.689.93-9.488 4.279-12.837 2.929-2.929 2.929-7.678 0-10.606-2.93-2.929-7.678-2.929-10.607 0-6.669 6.669-9.854 16.226-8.521 25.564l5.783 40.477a23.536 23.536 0 004.913 11.357l56.469 70.585c4.483 5.605 11.172 8.82 18.351 8.82h10.407c-1.027 2.638-1.597 5.503-1.597 8.5v8.5h-28.723c-1.313 0-2.627-.31-3.801-.897l-35.458-17.729c-4.299-2.149-9.252-2.198-13.594-.132-4.34 2.066-7.427 5.941-8.469 10.633l-12.62 56.791c-.396 1.783-1.379 3.42-2.767 4.61L59.202 314.44c-6.46 5.537-11.665 12.204-15.471 19.815l-2.942 5.885c-1.853 3.705-.351 8.21 3.354 10.063 1.076.538 2.221.793 3.348.793 2.751 0 5.4-1.52 6.714-4.147l2.942-5.885c2.906-5.813 6.882-10.905 11.816-15.134l43.364-37.169c3.836-3.288 6.552-7.814 7.647-12.745l12.62-56.792c.016-.071.053-.238.273-.343.221-.105.373-.028.438.004l35.458 17.729c3.246 1.623 6.88 2.481 10.51 2.481h28.723v.5c0 3.75.888 7.296 2.457 10.445l-49.499 42.428c-5.829 4.997-8.854 12.541-8.09 20.181l6.792 67.919a.4988.4988 0 01-.145.405l-46.289 46.29c-5.95 5.949-9.227 13.859-9.227 22.274v6.059c0 4.142 3.357 7.5 7.5 7.5s7.5-3.358 7.5-7.5v-6.059c0-4.408 1.716-8.551 4.833-11.667l46.29-46.291c3.3-3.301 4.927-7.857 4.463-12.502l-6.792-67.92c-.276-2.764.817-5.493 2.926-7.3l37.288-31.961c.058 4.602 1.445 8.888 3.795 12.494-16.385 7.5-27.803 24.04-27.803 43.206 0 25.666 20.749 55.5 47.5 55.5s47.5-29.834 47.5-55.5c0-19.167-11.418-35.706-27.803-43.206 2.35-3.606 3.737-7.891 3.795-12.494l37.288 31.961c2.108 1.807 3.202 4.536 2.926 7.3l-6.792 67.922c-.464 4.644 1.163 9.2 4.463 12.501l46.291 46.291c3.116 3.116 4.832 7.259 4.832 11.667v6.059c0 4.142 3.357 7.5 7.5 7.5s7.5-3.358 7.5-7.5v-6.059c0-8.415-3.276-16.325-9.226-22.273l-46.29-46.29a.5069.5069 0 01-.145-.404l6.792-67.92c.764-7.64-2.261-15.184-8.09-20.181l-49.499-42.428c1.569-3.149 2.457-6.694 2.457-10.445v-.5h28.723c3.63 0 7.264-.858 10.51-2.481l35.458-17.729c.063-.032.216-.11.438-.004.221.105.258.272.273.343l12.62 56.791c1.096 4.931 3.812 9.458 7.647 12.745l43.364 37.169c4.935 4.229 8.91 9.321 11.816 15.134l2.942 5.885c1.313 2.628 3.963 4.148 6.714 4.147 1.127 0 2.271-.255 3.348-.793 3.71-1.851 5.212-6.355 3.36-10.061zM222.999 239.497v-24c0-4.687 3.813-8.5 8.5-8.5s8.5 3.813 8.5 8.5v24c0 4.687-3.813 8.5-8.5 8.5s-8.5-3.812-8.5-8.5zm0-80c0-4.687 3.813-8.5 8.5-8.5s8.5 3.813 8.5 8.5v24c0 4.687-3.813 8.5-8.5 8.5s-8.5-3.813-8.5-8.5v-24zm-16-32v-3.889c0-6.437 1.888-12.671 5.458-18.028l2.157-3.236c3.067-4.601 8.199-7.347 13.729-7.347h6.311c5.53 0 10.662 2.747 13.729 7.347l2.157 3.235c3.57 5.357 5.458 11.591 5.458 18.028v3.889c0 4.687-3.813 8.5-8.5 8.5h-32c-4.686.001-8.499-3.811-8.499-8.499zm57 200c0 18.231-14.997 40.5-32.5 40.5s-32.5-22.269-32.5-40.5c0-17.92 14.579-32.5 32.5-32.5s32.5 14.58 32.5 32.5zm-41-56c0-4.687 3.813-8.5 8.5-8.5s8.5 3.813 8.5 8.5-3.813 8.5-8.5 8.5-8.5-3.812-8.5-8.5z"/></svg>