<svg xmlns="http://www.w3.org/2000/svg" viewBox="0 0 463.002 463.002" fill="#B794F4"><path d="M342.616 357.13l-15.206-45.618a24.6317 24.6317 0 01-.924-3.72l-6.048-36.289c-.746-4.478-3.405-8.389-7.293-10.73-3.889-2.342-8.591-2.862-12.897-1.426l-8.414 2.805c-2.833-3.728-7.3-6.15-12.333-6.15h-.847c2.972-2.821 5.982-6.296 7.439-10.792l15.482-5.161c5.136-1.711 9.056-6.058 10.229-11.342l13.494-60.721a71.6086 71.6086 0 001.703-15.51v-8.975c0-4.142-3.358-7.5-7.5-7.5s-7.5 3.358-7.5 7.5v8.975c0 4.115-.453 8.238-1.345 12.256l-13.494 60.721c-.038.17-.164.31-.33.365l-11.437 3.812c-1.555-6.77-3.907-14.954-5.517-20.343 1.789-1.319 3.538-2.913 5.226-4.833 16.908-19.226 8.02-47.73 3.324-59.275l7.688-7.688c4.439-4.438 6.884-10.34 6.884-16.617V58.581c0-8.607-2.341-17.058-6.769-24.438l-18.3-30.5c-2.131-3.552-6.738-4.704-10.29-2.572-3.552 2.131-4.704 6.738-2.572 10.29l18.3 30.499c2.586 4.31 4.121 9.154 4.518 14.142H271.5c-4.142 0-7.5 3.358-7.5 7.5s3.358 7.5 7.5 7.5H288v49.873c0 2.271-.884 4.405-2.49 6.01l-10.017 10.017c-2.89.898-6.142 1.745-9.517 2.455l1.268-2.573c2.808-5.614 3.26-11.986 1.275-17.941l-5.904-17.713c-1.31-3.93-5.559-6.053-9.487-4.744-3.93 1.31-6.053 5.557-4.744 9.487l5.904 17.713c.718 2.154.554 4.458-.48 6.528l-5.536 11.235c-3.708-.062-6.949-.556-9.272-1.648v-4.2c0-4.142-3.358-7.5-7.5-7.5s-7.5 3.358-7.5 7.5v4.179c-2.326 1.099-5.579 1.598-9.311 1.656l-5.517-11.262c-1.015-2.03-1.179-4.334-.461-6.489l5.904-17.713c1.31-3.93-.814-8.177-4.744-9.487-3.929-1.31-8.177.814-9.487 4.744l-5.904 17.713c-1.985 5.955-1.532 12.327 1.248 17.886l1.283 2.619c-3.367-.706-6.611-1.546-9.497-2.438l-10.026-10.026c-1.605-1.605-2.489-3.739-2.489-6.01V71.002h16.5c4.142 0 7.5-3.358 7.5-7.5s-3.358-7.5-7.5-7.5h-16.387c.397-4.988 1.932-9.832 4.518-14.142l18.3-30.5c2.131-3.552.979-8.159-2.572-10.29-3.553-2.132-8.159-.979-10.29 2.572l-18.3 30.5a47.5158 47.5158 0 00-6.769 24.438v62.293c0 6.277 2.445 12.179 6.883 16.617l7.669 7.669c-4.694 11.533-13.602 40.058 3.316 59.295 1.696 1.929 3.454 3.523 5.25 4.845-1.61 5.389-3.959 13.566-5.513 20.332l-11.437-3.813a.5016.5016 0 01-.329-.366l-13.494-60.72a56.597 56.597 0 01-1.345-12.257V143.5c0-4.142-3.358-7.5-7.5-7.5s-7.5 3.358-7.5 7.5v8.975c0 5.207.573 10.425 1.703 15.51l13.494 60.72c1.174 5.285 5.094 9.631 10.229 11.343l15.483 5.161c1.457 4.496 4.467 7.971 7.439 10.792h-.847c-5.033 0-9.5 2.422-12.333 6.15l-8.414-2.805c-4.307-1.436-9.007-.916-12.896 1.426-3.889 2.342-6.547 6.253-7.293 10.73l-6.048 36.29c-.209 1.255-.52 2.507-.924 3.718l-15.206 45.618c-1.31 3.93.814 8.177 4.744 9.487.787.262 1.586.387 2.373.387 3.14 0 6.066-1.988 7.114-5.13l15.206-45.619a39.603 39.603 0 001.489-5.997l6.048-36.289c.01-.062.038-.227.235-.346.197-.12.355-.066.416-.046l9.99 3.33v55.488l-8.146 8.146c-5.203 5.203-7.688 12.657-6.647 19.94l6.793 47.553v47.467c0 4.142 3.358 7.5 7.5 7.5s7.5-3.358 7.5-7.5v-48c0-.355-.025-.709-.075-1.061l-6.869-48.081c-.162-1.132-.075-2.272.211-3.358 2.849 32.631 29.24 59.009 61.284 59.971.659.02 1.315.03 1.971.03 16.61 0 32.239-6.323 44.197-17.927 11.465-11.126 18.165-25.757 19.142-41.55.183.926.219 1.884.083 2.835l-6.869 48.081c-.05.351-.075.706-.075 1.061v48c0 4.142 3.358 7.5 7.5 7.5s7.5-3.358 7.5-7.5v-47.467l6.793-47.553c1.041-7.283-1.444-14.738-6.647-19.94l-8.146-8.146v-55.488l9.989-3.33c.06-.021.218-.073.417.046.197.119.225.284.235.346l6.048 36.287c.337 2.026.838 4.044 1.489 5.999l15.206 45.618c1.048 3.143 3.974 5.131 7.114 5.13.786 0 1.586-.125 2.373-.387 3.93-1.308 6.054-5.555 4.744-9.485zM184.023 165.572c.98-5.09 2.48-9.678 3.755-13.031 3.749.975 8.755 2.113 14.162 2.885 12.699 1.813 22.598.887 29.547-2.752 6.949 3.639 16.85 4.566 29.547 2.752 5.406-.772 10.413-1.91 14.162-2.885 1.275 3.354 2.775 7.941 3.755 13.031 2.427 12.612.708 22.361-5.109 28.977-6.998 7.957-15.052 5.759-27.488 1.192-5.207-1.912-10.126-3.719-14.803-3.739h-.128c-4.677.02-9.596 1.827-14.803 3.739-12.435 4.566-20.489 6.765-27.488-1.192-5.817-6.616-7.536-16.365-5.109-28.977zm13.15 81.807c-3.728-3.285-6.172-5.607-6.172-7.873.033-2.632 3.007-14.104 6.189-24.885 9.188.852 18.158-2.434 24.602-4.8 3.766-1.383 7.659-2.813 9.695-2.819 2.036.006 5.93 1.437 9.695 2.819 5.735 2.106 13.467 4.946 21.576 4.946 1.013 0 2.032-.049 3.054-.144 3.182 10.78 6.155 22.25 6.188 24.879 0 2.27-2.444 4.593-6.172 7.877-2.701 2.38-5.806 5.121-7.791 8.623h-3.699c-6.794 0-12.731 4.1-14.774 10.202-1.161 3.468-4.401 5.798-8.063 5.798s-6.903-2.33-8.064-5.799c-2.043-6.101-7.98-10.201-14.774-10.201h-3.699c-1.986-3.502-5.09-6.243-7.791-8.623zm68.1 138.931c-9.493 9.212-22.033 14.059-35.27 13.669-25.917-.778-47.002-23.579-47.002-50.826v-77.496-.157c0-.276.224-.5.5-.5h25.162c.264 0 .493.082.613.15 2.419 7.031 7.938 12.337 14.725 14.618V375.5c0 4.142 3.358 7.5 7.5 7.5s7.5-3.358 7.5-7.5v-89.73c6.787-2.281 12.307-7.587 14.725-14.618.12-.068.35-.15.613-.15h25.162c.276 0 .5.224.5.5V351.503c0 13.229-5.231 25.591-14.728 34.807z"/></svg>