<svg xmlns="http://www.w3.org/2000/svg" viewBox="0 0 463.002 463.002" fill="#68D391"><path d="M396.136 337.605c-13.164-10.348-34.308-27.079-38.654-30.786-33.669-60.553-80.089-85.022-89.403-89.465 1.829-3.123 2.921-6.439 2.921-9.853 0-3.274-1.147-7.757-3.174-15.399-1.353-5.1-2.913-10.985-3.885-16.244.711.021 1.423.043 2.132.043 29.333 0 56.244-17.283 57.521-18.115a7.5002 7.5002 0 002.146-10.444l-12.245-18.368c15.538-12.017 32.422-18.369 32.603-18.437 3.886-1.435 5.873-5.748 4.438-9.634-1.435-3.885-5.749-5.87-9.634-4.437-.952.352-23.53 8.801-42.363 25.41-2.814 2.482-3.361 6.663-1.279 9.785l11.54 17.309c-8.463 4.413-23.972 11.217-40.121 11.881.383-1.466.565-2.824.616-4.014.28-6.454-2.577-12.725-8.491-18.64-2.119-2.119-3.794-5.211-5.567-8.485-1.974-3.646-4.308-7.946-7.818-11.398 5.019-18.58 40.684-80.711 76.261-104.585 3.439-2.308 4.356-6.967 2.048-10.406-2.309-3.44-6.967-4.358-10.407-2.049-37.082 24.884-73.297 85.674-81.617 110.82-.712-.057-1.443-.092-2.203-.092s-1.491.035-2.203.092c-8.32-25.146-44.536-85.936-81.617-110.82-3.439-2.31-8.1-1.393-10.407 2.049-2.308 3.439-1.391 8.099 2.048 10.406 35.577 23.874 71.242 86.005 76.261 104.585-3.511 3.452-5.844 7.752-7.818 11.398-1.773 3.274-3.448 6.366-5.567 8.485-5.915 5.915-8.771 12.186-8.491 18.64.052 1.187.232 2.543.614 4.005-16.105-.681-31.634-7.479-40.111-11.884l11.531-17.297c2.082-3.122 1.535-7.303-1.279-9.785-18.833-16.609-41.411-25.059-42.363-25.41-3.884-1.438-8.199.551-9.634 4.437s.552 8.199 4.438 9.634c.187.069 17.013 6.364 32.604 18.436l-12.246 18.369a7.5002 7.5002 0 002.146 10.444c1.278.832 28.186 18.115 57.521 18.115.709 0 1.42-.022 2.132-.043-.972 5.259-2.532 11.144-3.885 16.244-2.027 7.643-3.174 12.125-3.174 15.399 0 3.414 1.092 6.729 2.921 9.853-9.314 4.441-55.735 28.904-89.403 89.465-4.346 3.707-25.49 20.438-38.654 30.786-3.256 2.56-3.821 7.275-1.261 10.531 1.48 1.883 3.68 2.865 5.901 2.865 1.622 0 3.256-.523 4.63-1.604 40.662-31.965 40.983-32.549 41.938-34.284 24.22-44.067 56.204-68.095 72.998-78.45l-1.954 9.416c-1.154 5.559-1.948 11.151-2.398 16.757-1.451 5.849-10.718 44.326-10.718 72.665v95.6c0 8.768 7.133 15.9 15.938 15.9 8.161 0 14.958-6.12 15.813-14.235l1.577-14.984 5.412 31.122c1.42 8.169 8.469 14.098 16.76 14.098s15.34-5.929 16.76-14.097l5.413-31.122 1.577 14.983c.854 8.116 7.652 14.236 15.851 14.236 8.767 0 15.9-7.133 15.9-15.9v-95.6c0-28.337-9.266-66.811-10.718-72.664-.45-5.606-1.244-11.198-2.398-16.758l-1.963-9.458c16.758 10.292 48.682 34.236 73.007 78.494.954 1.734 1.275 2.318 41.937 34.283 1.375 1.08 3.008 1.604 4.63 1.604 2.222 0 4.421-.982 5.901-2.865 2.559-3.257 1.994-7.973-1.262-10.533zM231.501 224.002c-8.014 0-24.5-11.103-24.5-16.494.025-1.577 1.555-7.347 2.672-11.56 1.715-6.463 3.732-14.069 4.72-20.946h34.215c.988 6.877 3.005 14.483 4.72 20.946 1.117 4.213 2.647 9.982 2.672 11.554.001 5.397-16.485 16.5-24.499 16.5zm-18.697-75.197c3.663-3.663 6.047-8.065 8.15-11.95 4.033-7.446 5.74-9.854 10.546-9.854s6.514 2.407 10.546 9.854c2.103 3.885 4.487 8.287 8.15 11.95 2.739 2.739 4.2 5.36 4.112 7.382-.059 1.363-.85 2.685-1.828 3.814h-41.96c-.978-1.129-1.769-2.451-1.828-3.814-.088-2.021 1.373-4.642 4.112-7.382zm-19.971 282.392c-.048.459-.433.805-.933.805-.496 0-.9-.404-.9-.9v-95.6c0-5.429.384-11.336 1.003-17.337l7.929 45.59-7.099 67.442zm40.649 15.139c-.168.965-1.001 1.666-1.981 1.666s-1.813-.701-1.981-1.667l-26.447-152.072c-1.706-9.808-2.185-19.686-1.455-29.517.019-.183.036-.365.041-.546.398-5.042 1.108-10.071 2.145-15.071l3.933-18.95c5.264 3.536 11.096 6.209 16.264 7.642v129.682c0 4.143 3.358 7.5 7.5 7.5s7.5-3.357 7.5-7.5V237.82c5.168-1.432 11-4.106 16.264-7.642l3.933 18.95c1.038 5 1.748 10.029 2.145 15.071.006.182.022.364.041.546.73 9.83.251 19.708-1.455 29.517l-26.447 152.074zm38.519-15.235c0 .496-.404.9-.938.9a.8981.8981 0 01-.895-.806l-7.099-67.441 7.929-45.591c.619 6.001 1.003 11.908 1.003 17.337v95.601z"/></svg>