<svg xmlns="http://www.w3.org/2000/svg" viewBox="0 0 463.002 463.002"><path d="M427.661 321.262l-41.907-27.938a8.4971 8.4971 0 01-3.72-6.018l-6.03-48.237c-.977-7.814-5.765-14.582-12.809-18.104l-21.252-10.626c-3.778-12.161-8.697-23.735-14.736-34.5-5.436-9.688-15.804-15.729-27.107-15.828.251-.766.459-1.551.631-2.347l11.575-3.858c8.535-2.845 14.771-10.452 15.887-19.379l5.742-45.936c.335-2.681 1.945-5.064 4.307-6.376l64.9-36.056c3.621-2.012 4.926-6.578 2.914-10.198s-6.578-4.926-10.198-2.914l-64.901 36.056c-6.529 3.626-10.979 10.216-11.906 17.628l-5.742 45.936c-.404 3.229-2.659 5.98-5.746 7.009l-8.568 2.856c-1.497-3.13-3.695-5.917-6.513-8.151-6.259-4.962-12.837-9.107-19.633-12.444l-5.232-18.786c-1.769-6.353-5.46-11.789-10.314-15.795l22.566-28.208c2.917-3.646 6.667-6.678 10.844-8.767l72.142-36.071c3.705-1.852 5.207-6.357 3.354-10.062-1.853-3.705-6.356-5.208-10.062-3.354l-72.143 36.071c-6.104 3.053-11.585 7.483-15.848 12.813l-24.763 30.954c-1.992-.398-4.035-.629-6.121-.629H225.73c-2.086 0-4.129.231-6.121.629l-24.763-30.954c-4.263-5.329-9.744-9.76-15.849-12.813L106.855.794c-3.704-1.854-8.21-.351-10.062 3.354-1.853 3.705-.351 8.21 3.354 10.062l72.142 36.071c4.177 2.089 7.927 5.121 10.844 8.767l22.566 28.208c-4.854 4.006-8.545 9.442-10.314 15.795l-5.232 18.786c-6.796 3.336-13.374 7.481-19.633 12.444-2.818 2.235-5.016 5.021-6.513 8.151l-8.568-2.856c-3.087-1.029-5.342-3.78-5.746-7.009l-5.742-45.937c-.927-7.411-5.377-14.001-11.906-17.627L67.143 32.946c-3.62-2.011-8.187-.707-10.198 2.914-2.012 3.621-.707 8.187 2.914 10.198l64.901 36.056c2.361 1.312 3.971 3.695 4.307 6.376l5.742 45.936c1.116 8.928 7.352 16.535 15.887 19.379l11.575 3.858c.172.797.379 1.581.631 2.347-11.304.099-21.672 6.14-27.107 15.829-6.039 10.764-10.958 22.338-14.736 34.498l-21.253 10.626c-7.043 3.522-11.832 10.29-12.808 18.104l-6.03 48.237a8.4991 8.4991 0 01-3.719 6.018L35.342 321.26c-3.447 2.297-4.378 6.954-2.08 10.4 1.445 2.168 3.823 3.341 6.247 3.341 1.43 0 2.875-.408 4.153-1.261l41.908-27.938c5.687-3.792 9.435-9.856 10.282-16.638l6.03-48.237c.354-2.826 2.085-5.274 4.633-6.548l9.645-4.823c-2.736 13.518-4.158 27.577-4.158 41.944 0 14.269 1.397 28.256 4.094 41.683l-14.625 13.747c-.056.053-.112.107-.167.162-3.767 3.767-5.327 9.121-4.171 14.323l14.095 63.425a.4994.4994 0 01-.135.463l-44.895 44.895c-2.929 2.929-2.929 7.678 0 10.606 1.464 1.464 3.384 2.197 5.303 2.197s3.839-.732 5.303-2.197l44.895-44.895c3.767-3.767 5.327-9.121 4.171-14.323l-14.095-63.425a.4987.4987 0 01.103-.428l8.336-7.835c5.807 19.788 14.59 37.976 26.053 53.532 22.604 30.676 52.874 47.571 85.234 47.571s62.63-16.895 85.234-47.571c11.493-15.598 20.293-33.841 26.099-53.69l8.277 7.979c.107.12.151.284.116.442l-14.095 63.426c-1.156 5.201.404 10.555 4.171 14.322l44.895 44.895c1.464 1.464 3.384 2.197 5.303 2.197s3.839-.732 5.303-2.197c2.929-2.929 2.929-7.678 0-10.606l-44.895-44.895a.4983.4983 0 01-.135-.462l14.095-63.426c1.156-5.201-.404-10.555-4.171-14.322-.032-.032-.065-.064-.098-.096l-14.636-14.11c2.658-13.336 4.036-27.222 4.036-41.385 0-14.367-1.421-28.425-4.157-41.943l9.644 4.822c2.548 1.274 4.28 3.722 4.633 6.548l6.03 48.237a23.4817 23.4817 0 0010.283 16.638l41.907 27.938c1.279.853 2.724 1.261 4.153 1.261 2.423 0 4.802-1.173 6.247-3.341 2.299-3.446 1.368-8.103-2.079-10.4zM209.835 107.075c1.98-7.108 8.516-12.073 15.895-12.073h11.542c7.379 0 13.915 4.964 15.895 12.073l2.268 8.143c-7.838-2.128-15.856-3.215-23.934-3.215s-16.096 1.087-23.934 3.215l2.268-8.143zm-29.996 38.959c15.703-12.451 33.568-19.032 51.662-19.032s35.959 6.581 51.663 19.032c2.058 1.632 3.191 4.123 3.109 6.833-.081 2.659-1.332 5.023-3.431 6.488-15.604 10.89-33.357 16.646-51.341 16.646s-35.737-5.756-51.341-16.646c-2.099-1.465-3.35-3.83-3.431-6.488-.082-2.71 1.051-5.201 3.11-6.833zm59.162 269.592V215.502c0-4.142-3.358-7.5-7.5-7.5s-7.5 3.358-7.5 7.5v200.124c-54.134-5.334-97-67.934-97-144.124 0-32.272 7.564-62.814 21.875-88.323 2.829-5.043 8.311-8.177 14.305-8.177h13.506c16.872 10.475 35.696 16 54.814 16s37.942-5.525 54.813-16h13.507c5.994 0 11.476 3.133 14.305 8.176 14.311 25.509 21.875 56.051 21.875 88.324 0 76.19-42.866 138.79-97 144.124z"/></svg>