<svg xmlns="http://www.w3.org/2000/svg" viewBox="0 0 463.003 463.003"><path d="M359.418 189.996c12.73-3.407 35.161-10.159 42.347-17.101 5.774-5.578 7.161-13.759 3.62-21.351-5.167-11.076-18.691-17.164-34.458-15.502-10.467 1.102-33.561 7.968-58.011 15.238-20.258 6.023-44.515 13.235-57.914 15.777v-7.556c0-1.22-.094-2.419-.274-3.589l24.98-14.988c9.434-5.66 15.294-16.01 15.294-27.011V89.579l46.932-78.219c2.131-3.552.979-8.159-2.573-10.29-3.552-2.131-8.159-.98-10.29 2.572l-48 80a7.5057 7.5057 0 00-1.068 3.859v26.412c0 5.762-3.069 11.184-8.011 14.148l-24.203 14.522c-2.473-2.381-5.463-4.226-8.786-5.348V71.501c0-4.142-3.357-7.5-7.5-7.5s-7.5 3.358-7.5 7.5v65.734c-3.322 1.122-6.313 2.966-8.786 5.348l-24.203-14.522c-4.941-2.965-8.011-8.386-8.011-14.148V87.501c0-1.359-.369-2.693-1.068-3.859l-48-80c-2.133-3.552-6.738-4.702-10.29-2.572-3.552 2.131-4.704 6.738-2.573 10.29l46.932 78.219v24.334c0 11.001 5.86 21.351 15.294 27.011l24.98 14.988c-.18 1.171-.274 2.369-.274 3.589v7.556c-13.399-2.542-37.656-9.754-57.914-15.777-24.45-7.27-47.544-14.136-58.011-15.238-15.763-1.658-29.29 4.427-34.458 15.502-3.541 7.591-2.154 15.772 3.62 21.351 7.186 6.942 29.616 13.694 42.347 17.101 21.07 5.639 41.239 9.005 53.951 9.005 10.197 0 21.08-1.139 30.733-2.57l-16.829 14.024c-6.79 5.659-11.857 13.083-14.653 21.47l-19.979 59.936-63.164 78.956c-2.588 3.234-2.063 7.954 1.171 10.542 1.383 1.106 3.038 1.644 4.681 1.644 2.2 0 4.38-.964 5.861-2.815l64-80c.553-.691.979-1.474 1.259-2.313l20.401-61.205a32.4822 32.4822 0 0110.026-14.69l26.957-22.464v5.356l-21.591 26.989c-6.712 8.389-10.409 18.927-10.409 29.673v56.292l-63.286 134.483c-1.764 3.748-.155 8.216 3.593 9.979 1.032.486 2.118.716 3.188.716 2.814 0 5.513-1.593 6.791-4.309l64-136c.47-.999.714-2.089.714-3.193v-57.969c0-7.353 2.529-14.563 7.122-20.303l9.878-12.348v26.619c0 22.519 10.103 39.5 23.5 39.5s23.5-16.981 23.5-39.5v-26.619l9.878 12.348c4.593 5.74 7.122 12.95 7.122 20.302v57.969c0 1.104.244 2.194.714 3.193l64 136c1.278 2.716 3.976 4.309 6.791 4.309 1.069 0 2.156-.23 3.188-.716 3.748-1.764 5.356-6.232 3.593-9.979l-63.286-134.483v-56.292c0-10.746-3.697-21.284-10.409-29.673l-21.591-26.989v-5.356l26.957 22.464a32.4846 32.4846 0 0110.026 14.689l20.401 61.205c.28.839.706 1.623 1.259 2.313l64 80c1.481 1.852 3.661 2.815 5.861 2.815 1.643 0 3.298-.538 4.681-1.644 3.234-2.587 3.759-7.307 1.171-10.542l-63.164-78.956-19.979-59.937c-2.796-8.386-7.863-15.81-14.653-21.469l-16.829-14.024c9.653 1.431 20.536 2.57 30.733 2.57 12.711.002 32.88-3.364 53.951-9.003zm-42.228-24.338c22.722-6.756 46.217-13.742 55.307-14.698 10.576-1.115 17.312 2.677 19.294 6.926.809 1.733.657 3.153-.448 4.221-6.067 5.861-58.5 21.894-85.876 21.894-13.068 0-27.758-2.11-38.832-4.132 12.527-2.988 29.519-7.956 50.555-14.211zm-94.188 34.343v-18.597c2.638 1.027 5.503 1.597 8.5 1.597s5.862-.57 8.5-1.597v18.597h-17zm17 15v17h-17v-17h17zm-8.5-64c4.687 0 8.5 3.813 8.5 8.5s-3.813 8.5-8.5 8.5-8.5-3.813-8.5-8.5 3.813-8.5 8.5-8.5zM71.661 162.107c-1.105-1.068-1.257-2.488-.448-4.221 1.744-3.739 7.168-7.123 15.653-7.123 1.157 0 2.372.063 3.641.197 9.09.956 32.585 7.942 55.307 14.698 21.036 6.255 38.028 11.223 50.556 14.211-11.074 2.021-25.764 4.132-38.832 4.132-27.377 0-79.81-16.032-85.877-21.894zm159.841 117.894c-2.116 0-8.5-8.689-8.5-24.5v-8.5h17v8.5c0 15.811-6.384 24.5-8.5 24.5z"/></svg>