<svg xmlns="http://www.w3.org/2000/svg" viewBox="0 0 463 463" fill="#9B9B25"><path d="M455.712 122.606c-7.486-7.237-20.264-10.607-40.212-10.607-23.385 0-40.255 7.573-55.14 14.254-11.65 5.229-21.711 9.746-32.86 9.746h-25l14.119-18.825 38.74-23.244c3.552-2.131 4.704-6.738 2.572-10.29-2.131-3.552-6.737-4.704-10.29-2.572l-40 24a7.496 7.496 0 00-2.141 1.931l-21.75 29h-10.997c-.282-.493-.568-.984-.867-1.466 7.242-21.092-3.244-30.871-10.323-37.462-2.843-2.648-4.654-4.454-5.639-6.175l9.659-6.439c5.356-3.571 11.59-5.458 18.028-5.458H319.5c4.142 0 7.5-3.358 7.5-7.5s-3.358-7.5-7.5-7.5h-35.889c-9.409 0-18.52 2.758-26.348 7.978l-12.033 8.022h-27.459l-12.033-8.022c-7.829-5.219-16.939-7.978-26.348-7.978H143.5c-4.142 0-7.5 3.358-7.5 7.5s3.358 7.5 7.5 7.5h35.889c6.438 0 12.671 1.887 18.028 5.458l9.659 6.439c-.984 1.721-2.795 3.527-5.639 6.175-7.079 6.591-17.566 16.37-10.323 37.462-.299.482-.585.973-.867 1.466H179.25l-21.75-29a7.496 7.496 0 00-2.141-1.931l-40-24c-3.554-2.132-8.159-.979-10.29 2.572-2.131 3.552-.979 8.159 2.572 10.29l38.74 23.244 14.119 18.825h-25c-11.149 0-21.21-4.516-32.86-9.746-14.885-6.682-31.755-14.254-55.14-14.254-19.948 0-32.726 3.371-40.212 10.607C0 129.651 0 138.32 0 143.499c0 10.689 18.382 24.333 26.285 29.704 7.875 5.351 28.045 17.796 45.215 17.796.219 0 .441-.008.661-.01.821 6.018 3.313 11.328 7.465 15.849 7.383 8.04 19.024 12.12 30.524 14.174.288.068.581.12.879.153 9.597 1.631 19.013 1.882 25.688 1.882 1.46 0 2.78-.012 3.951-.024l-20.191 53.843c-1.455 3.878.511 8.201 4.389 9.656.868.325 1.757.479 2.632.479 3.037 0 5.895-1.858 7.023-4.869l23.464-62.572c10.408-5.252 17.744-15.672 24.441-25.196 2.733-3.885 5.4-7.675 8.11-10.908a47.451 47.451 0 006.485 8.556c-10.506 10.426-19.001 25.075-24.025 40.825l-18.584 17.149a7.497 7.497 0 00-2.339 4.451l-8 56a7.5135 7.5135 0 00.213 3.121l12.601 44.101c1.807 6.325 1.663 12.966-.417 19.207l-4.087 12.26c-1.31 3.929.814 8.177 4.744 9.487.787.262 1.586.387 2.373.387 3.14 0 6.066-1.987 7.114-5.13l4.087-12.26c3.04-9.12 3.251-18.826.61-28.07l-12.161-42.563 7.396-51.775 1.648-1.521c-.127 1.949-.195 3.89-.195 5.818 0 39.425 28.486 71.5 63.5 71.5s63.5-32.075 63.5-71.5c0-1.928-.068-3.87-.195-5.818l1.648 1.521 7.396 51.775-12.161 42.564c-2.641 9.244-2.43 18.95.61 28.07l4.087 12.26c1.048 3.143 3.974 5.131 7.114 5.13.786 0 1.586-.125 2.373-.387 3.93-1.31 6.053-5.558 4.744-9.487l-4.087-12.26c-2.08-6.24-2.225-12.881-.417-19.206l12.601-44.102c.29-1.014.362-2.078.213-3.121l-8-56a7.497 7.497 0 00-2.339-4.451l-18.584-17.149c-5.025-15.75-13.52-30.398-24.025-40.825a47.451 47.451 0 006.485-8.556c2.71 3.233 5.378 7.022 8.11 10.908 6.698 9.524 14.033 19.944 24.441 25.196l23.464 62.572c1.129 3.011 3.987 4.869 7.023 4.869.875 0 1.765-.154 2.632-.479 3.878-1.455 5.844-5.777 4.389-9.656l-20.191-53.843c1.171.012 2.49.024 3.951.024 6.673 0 16.09-.252 25.684-1.882.301-.034.597-.086.887-.155 11.499-2.055 23.139-6.134 30.521-14.173 4.152-4.521 6.645-9.831 7.465-15.849.22.002.442.01.661.01 17.17 0 37.34-12.446 45.215-17.796 7.903-5.37 26.285-19.014 26.285-29.704.001-5.179.001-13.848-7.287-20.893zm-191.725 37.353l-.916.053c-3.618.208-6.57 2.973-7.014 6.569-.404 3.277 1.383 6.385 4.32 7.73-1.897 3.633-4.503 6.918-7.733 9.689h-42.287c-3.23-2.771-5.836-6.055-7.733-9.689 2.937-1.345 4.724-4.452 4.32-7.73-.443-3.597-3.396-6.361-7.014-6.569l-.916-.053c-.002-.154-.013-.306-.013-.46 0-2.941.4-5.789 1.135-8.5h7.365c4.142 0 7.5-3.358 7.5-7.5 0-3.65-2.609-6.688-6.063-7.359 5.85-5.653 13.804-9.141 22.563-9.141s16.712 3.489 22.562 9.141c-3.454.671-6.062 3.709-6.062 7.359 0 4.142 3.358 7.5 7.5 7.5h7.365a32.3934 32.3934 0 011.135 8.5c-.001.154-.012.306-.014.46zm14.391 88.04h-93.756c1.166-5.81 2.929-11.626 5.169-17.203.55.128 1.12.203 1.708.203h80c.589 0 1.159-.075 1.708-.203 2.242 5.577 4.005 11.393 5.171 17.203zM183 263.499c0-.174.007-.35.009-.525.163.011.326.025.491.025h96c.166 0 .328-.014.491-.025.001.174.009.351.009.525 0 5.739-.743 11.278-2.115 16.5h-92.77c-1.372-5.222-2.115-10.761-2.115-16.5zm14.234-47.5c4.201-6.792 9.109-12.684 14.428-17h39.677c5.319 4.316 10.227 10.208 14.428 17h-68.533zm14.425-107.95c3.635-3.384 7.909-7.364 10.022-13.05h19.639c2.113 5.687 6.387 9.666 10.022 13.05 4.413 4.109 7.844 7.304 8.009 13.006-7.831-5.689-17.453-9.057-27.85-9.057s-20.019 3.367-27.85 9.057c.164-5.702 3.594-8.897 8.008-13.006zM17.712 133.392c3.017-2.917 10.634-6.393 29.788-6.393 20.172 0 34.826 6.578 48.998 12.939 12.672 5.688 24.642 11.061 39.002 11.061h16.316c-1.481.638-2.979 1.284-4.491 1.937-7.444 3.214-15.183 6.554-22.973 9.663-11.485 1.364-20.996-3.401-31.968-8.916-18.013-9.056-38.362-19.279-69.789-2.272-4.387-3.942-6.917-7.034-7.594-8.509.02-4.32.291-7.171 2.711-9.51zm18.909 28.675c-.241-.157-.465-.313-.701-.469 20.908-8.986 34.396-2.219 49.727 5.487 3.506 1.762 7.048 3.537 10.697 5.128-8.734 2.339-17.141 3.786-24.844 3.786-8.511 0-21.55-5.208-34.879-13.932zm69.382 42.711c-6.234-1.691-11.8-4.243-15.33-8.087-1.894-2.062-3.065-4.384-3.554-7.107 17.621-2.975 36.443-10.243 54.261-17.78.816 5.728-3.263 8.69-14.283 14.563-7.933 4.229-17.372 9.259-21.094 18.411zm64.156-19.041c-9.457 13.448-16.422 22.262-26.659 22.262-.659 0-1.463.008-2.395.019-3.954.043-11.173.121-19.085-.574 2.379-2.446 6.393-4.779 12.133-7.839 9.464-5.043 22.899-12.203 22.343-27.063l22.54 1.294c-3.137 3.738-6.026 7.846-8.877 11.901zm2.695-27.28c4.044-1.614 7.884-3.049 11.445-4.226-.177 1.6-.275 3.223-.289 4.866l-11.156-.64zM231.5 319.999c-16.739 0-31.523-9.931-40.243-25h80.486c-8.72 15.069-23.504 25-40.243 25zm47.49-160.902a47.6689 47.6689 0 00-.289-4.866c3.561 1.176 7.401 2.612 11.445 4.226l-11.156.64zm42.905 48.921c-.932-.01-1.736-.019-2.395-.019-10.237 0-17.202-8.814-26.659-22.262-2.852-4.055-5.741-8.163-8.877-11.9l22.54-1.294c-.557 14.86 12.879 22.019 22.343 27.063 5.741 3.06 9.754 5.393 12.133 7.839-7.911.693-15.13.615-19.085.573zm50.431-11.327c-3.53 3.844-9.095 6.396-15.33 8.087-3.721-9.151-13.161-14.183-21.095-18.411-11.02-5.873-15.099-8.834-14.283-14.563 17.818 7.536 36.64 14.805 54.261 17.78-.488 2.724-1.659 5.045-3.553 7.107zm19.174-20.692c-7.703 0-16.11-1.447-24.844-3.786 3.649-1.591 7.191-3.366 10.697-5.128 15.331-7.707 28.82-14.474 49.727-5.488-.237.157-.461.312-.702.47-13.328 8.724-26.367 13.932-34.878 13.932zm48.905-24.588c-31.428-17.006-51.775-6.783-69.789 2.272-10.972 5.516-20.485 10.277-31.969 8.916-7.79-3.109-15.529-6.449-22.973-9.663-1.512-.653-3.01-1.299-4.491-1.937H327.5c14.361 0 26.331-5.373 39.002-11.061 14.171-6.361 28.825-12.939 48.998-12.939 19.154 0 26.771 3.476 29.788 6.393 2.42 2.339 2.692 5.19 2.711 9.51-.677 1.475-3.207 4.567-7.594 8.509z"/></svg>