<svg xmlns="http://www.w3.org/2000/svg" viewBox="0 0 463.004 463.004" fill="#503818"><path d="M461.502 107.003c-2.485-3.313-7.186-3.984-10.5-1.5l-61.272 45.954a55.844 55.844 0 00-5.943 5.154l-60.728 60.728-42.091 21.046c-.641-1.257-1.316-2.494-2.047-3.694l21.885-21.885a7.5025 7.5025 0 002.051-3.833l14.026-70.132c1.105-5.525 3.304-10.667 6.534-15.282l50.229-71.756a7.4907 7.4907 0 001.21-2.83l8-40c.812-4.062-1.822-8.013-5.884-8.825-4.061-.816-8.013 1.821-8.825 5.884l-7.691 38.458-49.327 70.467c-4.427 6.324-7.44 13.37-8.955 20.943l-13.581 67.905-17.591 17.59v-21.893c0-10.336-6.71-19.128-16-22.266V161.35c0-5.923.729-11.839 2.165-17.584l5.611-22.445c1.005-4.019-1.438-8.091-5.457-9.096-4.014-1-8.09 1.439-9.095 5.457l-5.611 22.445a87.5695 87.5695 0 00-2.613 21.223v15.886c-3.195 1.079-6.084 2.825-8.5 5.075-2.416-2.25-5.305-3.996-8.5-5.075V161.35c0-7.147-.879-14.288-2.613-21.223l-5.611-22.445c-1.005-4.018-5.078-6.46-9.095-5.457-4.019 1.005-6.462 5.077-5.457 9.096l5.611 22.445a72.5787 72.5787 0 012.165 17.584v15.886c-9.29 3.138-16 11.93-16 22.266v21.893l-17.591-17.59L160.83 135.9c-1.515-7.573-4.528-14.619-8.955-20.942L102.548 44.49 94.856 6.032C94.043 1.97 90.093-.666 86.031.148c-4.062.813-6.696 4.764-5.884 8.825l8 40c.204 1.017.616 1.98 1.21 2.83l50.229 71.757c3.23 4.614 5.429 9.756 6.534 15.281l14.026 70.132a7.5098 7.5098 0 002.051 3.833l21.885 21.885c-.732 1.2-1.406 2.437-2.047 3.694l-42.091-21.046-63.14-63.14c-.251-.251-.52-.483-.803-.696l-64-48c-3.313-2.484-8.015-1.813-10.5 1.5-2.485 3.313-1.813 8.015 1.5 10.5l63.574 47.681 63.623 63.623c.57.569 1.228 1.044 1.949 1.404l44.923 22.461c-.696 3.505-1.069 7.125-1.069 10.831 0 1.355.066 2.694.162 4.025l-43.497 31.069c-5.256 3.755-11.416 6.223-17.813 7.137l-44.413 6.345a7.529 7.529 0 00-1.725.461l-40 16c-3.846 1.539-5.716 5.903-4.178 9.749 1.173 2.933 3.989 4.717 6.966 4.717.927 0 1.87-.173 2.783-.538l39.165-15.666 43.523-6.218c8.765-1.253 17.206-4.635 24.41-9.78l38.329-27.378c1.199 3.105 2.657 6.082 4.369 8.89l-45.328 45.328c-6.473 6.473-11.284 14.528-13.915 23.296l-20.201 67.336-15.378 23.068c-2.298 3.446-1.367 8.103 2.08 10.4 1.279.853 2.724 1.261 4.153 1.261 2.423 0 4.802-1.173 6.247-3.341l16-24c.412-.618.73-1.294.943-2.005l20.522-68.409c1.919-6.397 5.431-12.276 10.154-17l44.248-44.248a55.9764 55.9764 0 003.77 3.225c-18.166 12.919-29.379 35.334-29.379 60.276 0 39.425 28.486 71.5 63.5 71.5s63.5-32.075 63.5-71.5c0-24.93-11.215-47.353-29.379-60.276 1.305-1.021 2.563-2.095 3.771-3.226l44.248 44.247c4.724 4.725 8.235 10.604 10.155 17.001l20.522 68.409c.213.711.531 1.387.943 2.005l16 24c1.445 2.168 3.823 3.341 6.247 3.341 1.43 0 2.875-.408 4.153-1.261 3.447-2.298 4.378-6.954 2.08-10.4l-15.378-23.068-20.201-67.336c-2.63-8.768-7.442-16.823-13.915-23.297l-45.328-45.327c1.712-2.808 3.17-5.785 4.369-8.89l38.329 27.379c7.204 5.145 15.645 8.526 24.41 9.779l43.523 6.218 39.165 15.666c.914.365 1.856.538 2.783.538 2.977 0 5.793-1.784 6.966-4.717 1.539-3.846-.332-8.21-4.178-9.749l-40-16a7.529 7.529 0 00-1.725-.461l-44.413-6.345c-6.397-.914-12.557-3.382-17.813-7.136l-43.497-31.07c.096-1.331.162-2.67.162-4.025 0-3.706-.372-7.326-1.069-10.831l44.923-22.461c.721-.36 1.379-.835 1.949-1.404l61.589-61.589a40.6107 40.6107 0 014.337-3.762l61.271-45.953c3.318-2.485 3.99-7.186 1.505-10.499zm-230 197c-22.332 0-40.5-18.168-40.5-40.5s18.168-40.5 40.5-40.5 40.5 18.168 40.5 40.5-18.169 40.5-40.5 40.5zm16-113c4.687 0 8.5 3.813 8.5 8.5v14.217c-5.254-2.596-10.975-4.378-17-5.196v-9.021c0-4.687 3.813-8.5 8.5-8.5zm-32 0c4.687 0 8.5 3.813 8.5 8.5v9.021c-6.025.818-11.746 2.6-17 5.196v-14.217c0-4.687 3.813-8.5 8.5-8.5zm64.5 176.5c0 31.154-21.757 56.5-48.5 56.5s-48.5-25.346-48.5-56.5c0-22.506 11.743-43.014 29.446-51.87 5.945 2.18 12.363 3.37 19.054 3.37 6.692 0 13.11-1.191 19.056-3.371 17.699 8.855 29.444 29.376 29.444 51.871z"/></svg>