<svg xmlns="http://www.w3.org/2000/svg" viewBox="0 0 463.002 463.002" fill="#503818"><path d="M422.465 156.716c-1.538-3.846-5.902-5.717-9.749-4.179l-80 32a7.51 7.51 0 00-2.976 2.162l-37.751 45.302h-28.475l29.749-35.698a7.4984 7.4984 0 001.45-2.741l31.601-110.603 55.107-70.854c2.543-3.27 1.954-7.981-1.315-10.524-3.269-2.541-7.982-1.953-10.524 1.315l-56 72a7.5137 7.5137 0 00-1.292 2.544l-31.565 110.477-26.115 31.338c-.871-4.753-3.172-9.013-6.446-12.308l6.046-12.092c1.853-3.705.351-8.21-3.354-10.063-3.703-1.854-8.209-.351-10.062 3.354l-6.042 12.084c-1.063-.148-2.147-.23-3.25-.23s-2.187.082-3.25.23l-6.042-12.084c-1.852-3.704-6.357-5.205-10.062-3.354-3.705 1.853-5.207 6.357-3.354 10.063l6.046 12.092c-3.274 3.295-5.575 7.554-6.446 12.308l-26.115-31.338-31.566-110.476a7.4957 7.4957 0 00-1.292-2.544l-56-72c-2.543-3.271-7.255-3.86-10.524-1.315-3.27 2.543-3.859 7.255-1.315 10.524l55.107 70.854 31.601 110.603a7.4984 7.4984 0 001.45 2.741l29.749 35.698h-28.475L133.263 186.7a7.51 7.51 0 00-2.976-2.162l-80-32c-3.847-1.538-8.211.332-9.749 4.179-1.539 3.846.332 8.21 4.178 9.749l78.239 31.295 38.785 46.543a7.4998 7.4998 0 005.762 2.698h30.127l-41.082 17.606a7.4924 7.4924 0 00-3.148 2.534l-40 56a7.5031 7.5031 0 00-1.173 2.54l-8 32c-1.005 4.019 1.438 8.091 5.457 9.096.61.152 1.222.226 1.825.226 3.36 0 6.418-2.275 7.27-5.683l7.655-30.619 37.953-53.133 37.453-16.052a59.1623 59.1623 0 00-5.499 6.412l-42.382 46.522a7.5099 7.5099 0 00-1.777 3.424l-16 72a7.481 7.481 0 00-.121 2.558l8 64c.474 3.794 3.705 6.57 7.433 6.57.31 0 .624-.02.939-.059 4.11-.514 7.026-4.263 6.512-8.373l-7.839-62.711 15.285-68.783 17.615-19.335c.123 25.168 19.673 71.26 47.497 71.26s47.374-46.092 47.497-71.26l17.615 19.335 15.285 68.783-7.839 62.711c-.514 4.11 2.401 7.859 6.512 8.373.316.039.629.059.939.059 3.728 0 6.958-2.776 7.433-6.57l8-64a7.481 7.481 0 00-.121-2.558l-16-72a7.5052 7.5052 0 00-1.777-3.424l-42.382-46.522a59.1623 59.1623 0 00-5.499-6.412l37.453 16.052 37.953 53.133 7.655 30.619c.852 3.407 3.91 5.683 7.27 5.683.602 0 1.214-.073 1.825-.226 4.019-1.005 6.462-5.077 5.457-9.096l-8-32a7.5031 7.5031 0 00-1.173-2.54l-40-56a7.5047 7.5047 0 00-3.148-2.534l-41.082-17.606h30.127c2.226 0 4.337-.988 5.762-2.698l38.785-46.543 78.239-31.295c3.844-1.54 5.715-5.904 4.177-9.75zm-167.68 120.347c.063.089.126.178.193.266.624.868 1.222 1.759 1.792 2.673h-50.538c.57-.914 1.168-1.805 1.792-2.673.067-.087.13-.176.193-.266 5.975-8.182 14.296-14.061 23.284-14.061s17.309 5.878 23.284 14.061zm-55.784 26.438c0-2.771.351-5.635 1-8.5h63c.649 2.865 1 5.729 1 8.5 0 2.582-.291 5.458-.823 8.5h-63.355c-.53-3.042-.822-5.918-.822-8.5zm41-80V249.037c-2.751-.663-5.587-1.036-8.5-1.036s-5.749.373-8.5 1.036v-1.532V223.501c0-4.687 3.813-8.5 8.5-8.5s8.5 3.814 8.5 8.5zm-8.5 136.5c-10.515 0-21.427-16.284-27.551-33h55.103c-6.125 16.716-17.037 33-27.552 33z"/></svg>